<svg xmlns="http://www.w3.org/2000/svg" version="1.1" xmlns:xlink="http://www.w3.org/1999/xlink" xmlns:svgjs="http://svgjs.dev/svgjs" width="1000" height="1279" viewBox="0 0 1000 1279"><g transform="matrix(1,0,0,1,1.231088286483839,0.5178137651821544)"><svg viewBox="0 0 193 247" data-background-color="#ffffff" preserveAspectRatio="xMidYMid meet" height="1279" width="1000" xmlns="http://www.w3.org/2000/svg" xmlns:xlink="http://www.w3.org/1999/xlink"><g id="tight-bounds" transform="matrix(1,0,0,1,-0.23759996070862144,-0.09999999999999432)"><svg viewBox="0 0 193.4752 247.2" height="247.2" width="193.4752"><g><svg viewBox="0 0 193.4752 247.2" height="247.2" width="193.4752"><g><svg viewBox="0 0 193.4752 247.2" height="247.2" width="193.4752"><g id="textblocktransform"><svg viewBox="0 0 193.4752 247.2" height="247.2" width="193.4752" id="textblock"><g><svg viewBox="0 0 193.4752 247.2" height="247.2" width="193.4752"><g transform="matrix(1,0,0,1,0,0)"><svg width="193.4752" viewBox="0.30000001192092896 -37.5 29.350000381469727 37.5" height="247.2" data-palette-color="#fce44d"><g class="wordmark-text-0" data-fill-palette-color="primary" id="text-0"><path d="M14.95-14.25L11.9 0 4.7 0 11.5-31.8 18.9-32.8 15.35-16.1Q18.85-16.4 21.48-20.2 24.1-24 24.1-28.4L24.1-28.4Q24.1-31.6 22.48-33.4 20.85-35.2 17.9-35.2L17.9-35.2Q11.8-35.2 8.38-31.98 4.95-28.75 4.95-23.05L4.95-23.05Q4.95-22.1 5.08-21.4 5.2-20.7 5.5-20.05L5.5-20.05Q5.6-19.85 5.63-19.78 5.65-19.7 5.65-19.65L5.65-19.65Q2.85-19.65 1.58-20.83 0.3-22 0.3-24.5L0.3-24.5Q0.3-27 1.98-29.5 3.65-32 6.65-34L6.65-34Q9.2-35.65 12.13-36.58 15.05-37.5 17.85-37.5L17.85-37.5Q23.35-37.5 26.5-34.8 29.65-32.1 29.65-27.65L29.65-27.65Q29.65-25 28.48-22.45 27.3-19.9 25.2-18L25.2-18Q23.2-16.15 20.65-15.2 18.1-14.25 15.2-14.25L15.2-14.25 14.95-14.25Z" fill="#fce44d" data-fill-palette-color="primary"></path></g></svg></g></svg></g></svg></g></svg></g></svg></g><defs></defs></svg><rect width="193.4752" height="247.2" fill="none" stroke="none" visibility="hidden"></rect></g></svg></g></svg>